<?xml version="1.0" encoding="UTF-8" standalone="no"?>
<!DOCTYPE svg PUBLIC "-//W3C//DTD SVG 1.1//EN" "http://www.w3.org/Graphics/SVG/1.1/DTD/svg11.dtd">
<svg width="100%" height="100%" viewBox="0 0 4267 4267" version="1.1" xmlns="http://www.w3.org/2000/svg" xmlns:xlink="http://www.w3.org/1999/xlink" xml:space="preserve" xmlns:serif="http://www.serif.com/" style="fill-rule:evenodd;clip-rule:evenodd;stroke-linejoin:round;stroke-miterlimit:2;">
    <g id="Default" transform="matrix(4.166667,0,0,4.166667,0,0)">
        <rect x="0" y="0" width="1024" height="1024" style="fill:rgb(200,169,110);"/>
        <g transform="matrix(0.749935,0,0,0.749935,85.780625,-334.187549)">
            <path d="M797.329,836.212L529.807,1255.854L483.001,833.791C462.422,835.405 434.581,836.212 408.353,836.212C363.564,836.212 320.39,835.405 294.969,833.791L290.934,850.335C330.477,851.949 346.617,856.791 346.617,881.808C346.617,891.492 344.196,904.404 339.758,921.351L235.251,1312.748C221.532,1364.8 202.567,1399.905 145.27,1402.326L141.638,1418.869C160.199,1417.255 191.269,1416.448 219.918,1416.448C248.566,1416.448 292.951,1417.255 312.32,1418.869L315.951,1402.326C263.496,1400.712 247.356,1382.151 247.356,1352.695C247.356,1340.993 249.777,1327.678 253.812,1312.748L358.319,916.106L424.897,1422.904L443.054,1422.904L786.031,885.843L666.191,1331.309C650.454,1391.431 637.946,1399.905 581.052,1402.326L577.824,1418.869C605.666,1417.255 656.91,1416.448 709.769,1416.448C759.804,1416.448 807.417,1417.255 842.118,1418.869L845.346,1402.326C805.803,1400.712 789.663,1395.87 789.663,1370.853C789.663,1361.169 792.084,1348.256 796.522,1331.309L905.871,921.351C921.204,861.229 933.713,852.756 991.01,850.335L995.045,833.791C959.537,835.405 911.924,836.212 861.89,836.212L797.329,836.212Z" style="fill:rgb(32,32,33);fill-rule:nonzero;"/>
        </g>
    </g>
</svg>
